{
  "accessors": [
    {
      "bufferView": 2,
      "componentType": 5126,
      "count": 845,
      "max": [0.979269802570343, 1.1199511289596558, 0.9935951232910156],
      "min": [-0.00044060684740543365, -2.443650007247925, -0.9935951232910156],
      "type": "VEC3"
    },
    {
      "bufferView": 2,
      "byteOffset": 10140,
      "componentType": 5126,
      "count": 845,
      "max": [1.0, 0.10150358825922012, 1.0],
      "min": [0.0, -0.3531080186367035, -1.0],
      "type": "VEC3"
    },
    {
      "bufferView": 1,
      "componentType": 5126,
      "count": 845,
      "max": [0.5171898007392883, 0.9866558313369751],
      "min": [0.014655262231826782, 0.012171030044555664],
      "type": "VEC2"
    },
    {
      "bufferView": 1,
      "byteOffset": 6760,
      "componentType": 5126,
      "count": 845,
      "max": [0.0, 1.0],
      "min": [0.0, 1.0],
      "type": "VEC2"
    },
    {
      "bufferView": 0,
      "componentType": 5125,
      "count": 4608,
      "type": "SCALAR"
    },
    {
      "bufferView": 2,
      "byteOffset": 20280,
      "componentType": 5126,
      "count": 845,
      "max": [4.656612873077393e-10, 1.1199511289596558, 0.9935951232910156],
      "min": [-0.979269802570343, -2.443650007247925, -0.9935951232910156],
      "type": "VEC3"
    },
    {
      "bufferView": 2,
      "byteOffset": 30420,
      "componentType": 5126,
      "count": 845,
      "max": [9.999569738283753e-5, 0.09309598803520203, 1.0],
      "min": [-1.0, -0.3531080186367035, -1.0],
      "type": "VEC3"
    },
    {
      "bufferView": 1,
      "byteOffset": 13520,
      "componentType": 5126,
      "count": 845,
      "max": [1.0022443532943726, 0.981627345085144],
      "min": [0.513674795627594, 0.005738794803619385],
      "type": "VEC2"
    },
    {
      "bufferView": 1,
      "byteOffset": 20280,
      "componentType": 5126,
      "count": 845,
      "max": [0.0, 1.0],
      "min": [0.0, 1.0],
      "type": "VEC2"
    },
    {
      "bufferView": 0,
      "byteOffset": 18432,
      "componentType": 5125,
      "count": 4608,
      "type": "SCALAR"
    },
    {
      "bufferView": 2,
      "byteOffset": 40560,
      "componentType": 5126,
      "count": 11768,
      "max": [0.9747881889343262, 1.6538784503936768, 0.9894950985908508],
      "min": [-0.9756695032119751, -2.5691566467285156, -0.9894952178001404],
      "type": "VEC3"
    },
    {
      "bufferView": 2,
      "byteOffset": 181776,
      "componentType": 5126,
      "count": 11768,
      "max": [0.9948351979255676, 0.994918167591095, 0.9956571459770203],
      "min": [-0.9966322183609009, -1.0, -0.9956571459770203],
      "type": "VEC3"
    },
    {
      "bufferView": 1,
      "byteOffset": 27040,
      "componentType": 5126,
      "count": 11768,
      "max": [1.0000001192092896, 0.9900000095367432],
      "min": [0.0, -0.08195328712463379],
      "type": "VEC2"
    },
    {
      "bufferView": 1,
      "byteOffset": 121184,
      "componentType": 5126,
      "count": 11768,
      "max": [0.0, 1.0],
      "min": [0.0, 1.0],
      "type": "VEC2"
    },
    {
      "bufferView": 0,
      "byteOffset": 36864,
      "componentType": 5125,
      "count": 67584,
      "type": "SCALAR"
    },
    {
      "bufferView": 2,
      "byteOffset": 322992,
      "componentType": 5126,
      "count": 19250,
      "max": [0.42889082431793213, 2.5343170166015625, 0.36783063411712646],
      "min": [-0.35175877809524536, 1.650033950805664, -0.9104121327400208],
      "type": "VEC3"
    },
    {
      "bufferView": 2,
      "byteOffset": 553992,
      "componentType": 5126,
      "count": 19250,
      "max": [1.0, 1.0, 1.0],
      "min": [-1.0, -1.0, -1.0],
      "type": "VEC3"
    },
    {
      "bufferView": 1,
      "byteOffset": 215328,
      "componentType": 5126,
      "count": 19250,
      "max": [1.0000001192092896, 1.0],
      "min": [0.0, -4.76837158203125e-7],
      "type": "VEC2"
    },
    {
      "bufferView": 1,
      "byteOffset": 369328,
      "componentType": 5126,
      "count": 19250,
      "max": [0.9829740524291992, 1.0876942873001099],
      "min": [-0.04471314325928688, 0.19506144523620605],
      "type": "VEC2"
    },
    {
      "bufferView": 0,
      "byteOffset": 307200,
      "componentType": 5125,
      "count": 105372,
      "type": "SCALAR"
    }
  ],
  "asset": {
    "extras": {
      "author": "BeeKING (https://sketchfab.com/bahoduroviskandar51)",
      "license": "SKETCHFAB Standard (https://sketchfab.com/licenses)",
      "source": "https://sketchfab.com/3d-models/coconut-shampoo-with-moisturizing-oils-7cb5c68fc663488c9c4131eb7201b5c7",
      "title": "Coconut Shampoo with Moisturizing Oils"
    },
    "generator": "Sketchfab-16.56.0",
    "version": "2.0"
  },
  "bufferViews": [
    {
      "buffer": 0,
      "byteLength": 728688,
      "name": "floatBufferViews",
      "target": 34963
    },
    {
      "buffer": 0,
      "byteLength": 523328,
      "byteOffset": 728688,
      "byteStride": 8,
      "name": "floatBufferViews",
      "target": 34962
    },
    {
      "buffer": 0,
      "byteLength": 784992,
      "byteOffset": 1252016,
      "byteStride": 12,
      "name": "floatBufferViews",
      "target": 34962
    }
  ],
  "buffers": [
    {
      "byteLength": 2037008,
      "uri": "shampoo.bin"
    }
  ],
  "extensionsUsed": [
    "KHR_materials_clearcoat",
    "KHR_materials_transmission",
    "KHR_materials_specular"
  ],
  "images": [
    {
      "uri": "textures/Material.007_baseColor.png"
    }
  ],
  "materials": [
    {
      "doubleSided": true,
      "name": "Material.007",
      "pbrMetallicRoughness": {
        "baseColorTexture": {
          "index": 0
        },
        "metallicFactor": 0.0,
        "roughnessFactor": 0.5
      }
    },
    {
      "doubleSided": true,
      "name": "Material.002",
      "pbrMetallicRoughness": {
        "baseColorTexture": {
          "index": 0
        },
        "metallicFactor": 0.0,
        "roughnessFactor": 0.5
      }
    },
    {
      "alphaMode": "BLEND",
      "doubleSided": true,
      "extensions": {
        "KHR_materials_clearcoat": {
          "clearcoatFactor": 1.0,
          "clearcoatRoughnessFactor": 0.0
        },
        "KHR_materials_transmission": {
          "transmissionFactor": 1.0
        }
      },
      "name": "Material.003",
      "pbrMetallicRoughness": {
        "baseColorFactor": [
          0.09638317901253224, 0.017726918303419353, 0.0, 0.25
        ],
        "metallicFactor": 0.0,
        "roughnessFactor": 0.0
      }
    },
    {
      "doubleSided": true,
      "extensions": {
        "KHR_materials_specular": {
          "specularColorFactor": [1.0, 1.0, 1.0],
          "specularFactor": 0.8
        }
      },
      "name": "Cheap_Plastic",
      "pbrMetallicRoughness": {
        "baseColorFactor": [0.002, 0.002, 0.002, 1.0],
        "metallicFactor": 0.0
      }
    }
  ],
  "meshes": [
    {
      "name": "Object_0",
      "primitives": [
        {
          "attributes": {
            "NORMAL": 1,
            "POSITION": 0,
            "TEXCOORD_0": 2,
            "TEXCOORD_1": 3
          },
          "indices": 4,
          "material": 0,
          "mode": 4
        }
      ]
    },
    {
      "name": "Object_1",
      "primitives": [
        {
          "attributes": {
            "NORMAL": 6,
            "POSITION": 5,
            "TEXCOORD_0": 7,
            "TEXCOORD_1": 8
          },
          "indices": 9,
          "material": 1,
          "mode": 4
        }
      ]
    },
    {
      "name": "Object_2",
      "primitives": [
        {
          "attributes": {
            "NORMAL": 11,
            "POSITION": 10,
            "TEXCOORD_0": 12,
            "TEXCOORD_1": 13
          },
          "indices": 14,
          "material": 2,
          "mode": 4
        }
      ]
    },
    {
      "name": "Object_3",
      "primitives": [
        {
          "attributes": {
            "NORMAL": 16,
            "POSITION": 15,
            "TEXCOORD_0": 17,
            "TEXCOORD_1": 18
          },
          "indices": 19,
          "material": 3,
          "mode": 4
        }
      ]
    }
  ],
  "nodes": [
    {
      "children": [1],
      "matrix": [
        1.0, 0.0, 0.0, 0.0, 0.0, 2.220446049250313e-16, -1.0, 0.0, 0.0, 1.0,
        2.220446049250313e-16, 0.0, 0.0, 0.0, 0.0, 1.0
      ],
      "name": "Sketchfab_model"
    },
    {
      "children": [2],
      "name": "root"
    },
    {
      "children": [3],
      "matrix": [
        1.0, 0.0, 0.0, 0.0, 0.0, 2.220446049250313e-16, 1.0, 0.0, 0.0, -1.0,
        2.220446049250313e-16, 0.0, 0.0, 0.0, 0.0, 1.0
      ],
      "name": "GLTF_SceneRootNode"
    },
    {
      "children": [4, 5, 6, 7],
      "matrix": [
        0.9281179904937744, 0.0, 0.0, 0.0, 0.0, 0.9281179904937744, 0.0, 0.0,
        0.0, 0.0, 0.9281179904937744, 0.0, 0.0, 2.3828957080841064, 0.0, 1.0
      ],
      "name": "Cylinder_0"
    },
    {
      "mesh": 0,
      "name": "Object_4"
    },
    {
      "mesh": 1,
      "name": "Object_5"
    },
    {
      "mesh": 2,
      "name": "Object_6"
    },
    {
      "mesh": 3,
      "name": "Object_7"
    }
  ],
  "samplers": [
    {
      "magFilter": 9729,
      "minFilter": 9987,
      "wrapS": 10497,
      "wrapT": 10497
    }
  ],
  "scene": 0,
  "scenes": [
    {
      "name": "Sketchfab_Scene",
      "nodes": [0]
    }
  ],
  "textures": [
    {
      "sampler": 0,
      "source": 0
    }
  ]
}
